<?xml version="1.0" standalone="no"?>
<!DOCTYPE svg PUBLIC "-//W3C//DTD SVG 20010904//EN"
 "http://www.w3.org/TR/2001/REC-SVG-20010904/DTD/svg10.dtd">
<svg version="1.0" xmlns="http://www.w3.org/2000/svg"
 width="500.000000pt" height="500.000000pt" viewBox="0 0 500.000000 500.000000"
 preserveAspectRatio="xMidYMid meet">
<metadata>
Created by potrace 1.11, written by Peter Selinger 2001-2013
</metadata>
<g transform="translate(0.000000,500.000000) scale(0.100000,-0.100000)"
fill="#000000" stroke="none">
<path d="M2308 4995 c-1 -1 -34 -6 -73 -9 -38 -4 -77 -9 -85 -11 -8 -2 -33 -6
-55 -9 -91 -13 -192 -38 -375 -91 -103 -29 -337 -135 -480 -216 -174 -98 -415
-292 -565 -453 -305 -327 -515 -722 -615 -1155 -43 -187 -52 -272 -55 -501 -3
-240 7 -350 50 -569 66 -343 262 -752 500 -1051 78 -98 269 -289 369 -370 385
-311 856 -502 1354 -550 98 -9 440 -7 487 3 11 3 43 8 70 11 627 81 1239 432
1631 936 180 233 318 489 408 760 24 73 69 244 80 305 32 170 40 266 41 450 0
142 -11 340 -19 355 -2 3 -7 30 -10 60 -4 30 -13 83 -21 116 -8 34 -16 73 -19
85 -10 50 -58 206 -93 298 -51 138 -149 333 -229 457 -296 456 -725 804 -1224
992 -171 64 -328 106 -475 127 -22 4 -69 11 -105 17 -58 9 -483 21 -492 13z
m417 -479 c136 -14 415 -85 527 -134 23 -10 63 -27 88 -38 37 -15 160 -82 238
-129 257 -154 515 -423 681 -713 56 -97 151 -306 151 -332 0 -9 4 -20 9 -25
11 -13 58 -194 77 -298 41 -235 39 -510 -6 -735 -122 -604 -504 -1117 -1043
-1402 -158 -83 -405 -175 -527 -195 -19 -3 -46 -8 -60 -10 -55 -11 -68 -13
-135 -20 -118 -13 -337 -12 -456 1 -321 35 -632 150 -905 335 -148 100 -334
270 -439 404 -22 28 -42 52 -45 55 -13 12 -110 159 -110 166 0 4 -6 15 -14 23
-22 25 -112 209 -150 308 -55 142 -100 324 -122 493 -11 86 -12 401 -2 466 57
363 160 635 336 896 253 375 636 662 1062 797 68 21 177 50 220 58 14 2 43 8
65 13 22 5 76 12 120 15 44 4 81 8 82 9 6 5 295 -2 358 -8z"/>
<path d="M2783 3020 c-36 -10 -63 -37 -69 -71 -3 -19 -10 -46 -16 -61 -21 -57
-8 -56 -798 -57 -399 0 -737 0 -751 -1 -69 -1 -104 -100 -54 -154 l24 -26 326
0 c356 0 358 0 408 -60 16 -19 28 -48 32 -78 9 -66 28 -106 68 -136 l35 -27
442 0 c424 -1 443 -2 462 -21 20 -20 17 -55 -6 -70 -14 -10 3 -9 -736 -10
-637 0 -654 -1 -694 -41 -68 -67 -55 -178 27 -227 31 -19 59 -20 1095 -20
1154 0 1098 -3 1136 54 9 14 19 49 22 78 9 79 47 118 117 118 52 0 72 10 91
40 38 66 -9 127 -97 125 -140 -4 -197 48 -203 186 -5 125 -35 159 -138 159
-59 0 -82 16 -71 50 7 23 -22 21 372 22 229 1 255 2 283 20 73 44 74 149 3
195 -25 16 -76 18 -659 18 -348 0 -641 -2 -651 -5z"/>
<path d="M544 2818 c-50 -24 -57 -96 -15 -139 59 -59 150 -22 151 62 0 70 -70
110 -136 77z"/>
<path d="M806 2804 c-67 -67 3 -180 92 -148 93 33 70 174 -29 174 -26 0 -44
-7 -63 -26z"/>
<path d="M4105 2345 c-40 -39 -28 -103 22 -123 37 -15 60 -10 89 17 49 47 12
131 -56 131 -19 0 -40 -9 -55 -25z"/>
<path d="M4361 2344 c-29 -37 -27 -79 5 -109 15 -14 35 -25 45 -25 55 0 96 52
83 104 -14 58 -96 77 -133 30z"/>
</g>
</svg>
